<?xml version="1.0" encoding="UTF-8"?>
<svg width="841px" height="105px" viewBox="0 0 841 105" version="1.1" xmlns="http://www.w3.org/2000/svg" xmlns:xlink="http://www.w3.org/1999/xlink">
    <!-- Generator: Sketch 47 (45396) - http://www.bohemiancoding.com/sketch -->
    <title>Artboard</title>
    <desc>Created with Sketch.</desc>
    <defs></defs>
    <g id="Page-1" stroke="none" stroke-width="1" fill="none" fill-rule="evenodd">
        <g id="Artboard" fill-rule="nonzero">
            <g id="BSS_NewLogo_White">
                <path d="M103.8,38.9 L100.3,41.2 L101.4,45.3 L98.1,42.6 L94.6,44.9 L96.1,41 L92.8,38.3 L97,38.5 L98.5,34.6 L99.6,38.7 L103.8,38.9 Z M92.4,23.5 L94.5,27.2 L98.6,26.3 L95.8,29.4 L97.9,33.1 L94.1,31.4 L91.3,34.5 L91.7,30.3 L87.9,28.5 L92,27.6 L92.4,23.5 Z M86.5,17.3 L90.3,15.4 L88.4,19.2 L91.4,22.2 L87.2,21.5 L85.3,25.3 L84.6,21 L80.4,20.3 L84.1,18.4 L83.4,14.2 L86.5,17.3 Z M72.6,7.8 L76.3,9.9 L79.4,7.1 L78.5,11.2 L82.2,13.3 L78,13.8 L77.1,17.9 L75.4,14 L71.2,14.4 L74.3,11.6 L72.6,7.8 Z M64.5,5.3 L66.8,1.8 L67,6 L71.1,7.1 L67.2,8.6 L67.4,12.8 L64.7,9.5 L60.8,11 L63.1,7.5 L60.5,4.2 L64.5,5.3 Z M52,4 L53.3,0 L54.6,4 L58.8,4 L55.4,6.5 L56.7,10.5 L53.3,8 L49.9,10.5 L51.2,6.5 L47.8,4 L52,4 Z M39.5,6 L39.7,1.8 L42,5.3 L46.1,4.2 L43.4,7.5 L45.7,11 L41.8,9.5 L39.1,12.8 L39.3,8.6 L35.4,7.1 L39.5,6 Z M27.1,7 L30.2,9.8 L33.9,7.7 L32.2,11.5 L35.3,14.3 L31.1,13.9 L29.4,17.8 L28.5,13.7 L24.3,13.3 L28,11.2 L27.1,7 Z M16.2,15.3 L20,17.2 L23,14.2 L22.3,18.4 L26.1,20.3 L21.9,21 L21.2,25.2 L19.3,21.4 L15.1,22.1 L18.1,19.1 L16.2,15.3 Z M12,27 L14.1,23.3 L14.5,27.5 L18.6,28.4 L14.8,30.1 L15.2,34.3 L12.4,31.2 L8.6,32.9 L10.7,29.2 L7.8,26.1 L12,27 Z M6.9,38.5 L8,34.4 L9.5,38.3 L13.7,38.1 L10.4,40.8 L11.9,44.7 L8.4,42.4 L5.1,45.1 L6.2,41 L2.7,38.7 L6.9,38.5 Z M4.9,51 L4.9,46.8 L7.4,50.2 L11.4,48.9 L8.9,52.3 L11.4,55.7 L7.4,54.4 L4.9,57.8 L4.9,53.6 L0.9,52.3 L4.9,51 Z M2.7,65.9 L6.2,63.6 L5.1,59.5 L8.4,62.1 L11.9,59.8 L10.4,63.8 L13.7,66.5 L9.5,66.3 L8,70.2 L6.9,66.1 L2.7,65.9 Z M14.1,81.3 L12,77.6 L7.9,78.5 L10.7,75.4 L8.6,71.7 L12.4,73.4 L15.2,70.3 L14.8,74.5 L18.6,76.2 L14.5,77 L14.1,81.3 Z M19.9,87.4 L16.1,89.3 L18,85.5 L15,82.5 L19.2,83.2 L21.1,79.4 L21.8,83.6 L26,84.3 L22.2,86.2 L22.9,90.4 L19.9,87.4 Z M33.8,96.9 L30.1,94.8 L27,97.6 L27.9,93.5 L24.2,91.4 L28.4,91 L29.3,86.9 L31,90.7 L35.2,90.3 L32.1,93.1 L33.8,96.9 Z M41.9,99.4 L39.6,102.9 L39.4,98.7 L35.3,97.6 L39.2,96.1 L39,91.9 L41.7,95.2 L45.6,93.7 L43.3,97.2 L46,100.5 L41.9,99.4 Z M54.5,100.7 L53.2,104.7 L51.9,100.7 L47.7,100.7 L51.1,98.2 L49.8,94.2 L53.2,96.7 L56.6,94.2 L55.3,98.2 L58.7,100.7 L54.5,100.7 Z M67,98.7 L66.8,102.9 L64.5,99.3 L60.4,100.4 L63,97.1 L60.7,93.6 L64.6,95.1 L67.3,91.8 L67.1,96 L71.1,97.5 L67,98.7 Z M79.4,97.7 L76.3,94.9 L72.6,97 L74.3,93.2 L71.2,90.4 L75.4,90.8 L77.1,87 L78,91.1 L82.2,91.5 L78.5,93.6 L79.4,97.7 Z M90.2,89.4 L86.4,87.5 L83.4,90.5 L84.1,86.3 L80.3,84.4 L84.5,83.7 L85.2,79.5 L87.1,83.2 L91.3,82.5 L88.3,85.5 L90.2,89.4 Z M94.4,77.7 L92.3,81.4 L91.9,77.2 L87.8,76.3 L91.6,74.6 L91.2,70.4 L94,73.5 L97.8,71.8 L95.7,75.5 L98.5,78.6 L94.4,77.7 Z M99.6,66.2 L98.5,70.3 L97,66.4 L92.8,66.6 L96.1,63.9 L94.6,59.9 L98.2,62.2 L101.5,59.5 L100.4,63.6 L103.9,65.9 L99.6,66.2 Z M101.6,53.7 L101.6,57.9 L99.1,54.5 L95.1,55.8 L97.6,52.4 L95.1,49 L99.1,50.3 L101.6,46.9 L101.6,51.1 L105.6,52.4 L101.6,53.7 Z" id="Shape" fill="#FFFFFF"></path>
                <path d="M57.7,86.9 C56.8,86.9 56,86.7 55.3,86.2 C54.4,85.6 53.8,84.7 53.6,83.6 L51,66.9 C50.3,67 49.5,67 48.8,67.1 C47.9,67.2 47.1,67.2 46.3,67.2 C44.1,67.2 42,67 39.9,66.6 L39,79.3 C38.9,80.4 38.4,81.3 37.6,82 C36.8,82.6 35.8,82.9 34.8,82.9 L34.6,82.9 C33.4,82.9 32.3,82.4 31.5,81.6 C30.8,80.8 30.4,79.8 30.4,78.7 L33.3,35.4 C32.9,35.3 32.6,35.2 32.2,35 C30.4,34.2 29.2,32.6 28.9,30.7 C28.5,28.7 29.1,26.7 30.6,25.2 C33.5,22.5 40.2,20.1 48.1,18.7 C51.4,18.1 54.7,17.8 58.1,17.8 C60.7,17.8 64.2,18 66.6,19.1 C68.3,19.9 69.5,21.6 69.7,23.6 C70,25.6 69.3,27.6 67.8,29 C67.4,29.3 67,29.6 66.6,29.9 L82.7,70.6 C83.1,71.6 83.1,72.7 82.6,73.6 C82.1,74.6 81.1,75.4 80,75.8 C79.5,76 79,76.1 78.4,76.1 C77.9,76.1 77.4,76 76.9,75.8 C75.9,75.4 75.1,74.6 74.8,73.6 L70.1,61.6 C68,62.8 65.8,63.7 63.4,64.4 C62.2,64.8 60.9,65.1 59.5,65.4 L62.1,82.1 C62.3,83.1 62,84.2 61.4,85 C60.7,85.8 59.8,86.4 58.7,86.6 C58.3,86.9 58,86.9 57.7,86.9 Z M42.5,60.5 C43.8,60.7 45,60.7 46.3,60.7 L46.4,60.7 C47.5,60.7 48.7,60.6 50,60.5 L49.6,58.1 C47.4,58.6 45.2,59.3 43.1,60.2 L42.5,60.5 Z M58.5,59.3 C60.7,58.8 62.8,58.2 64.8,57.3 C65.1,57.2 65.4,57.1 65.6,56.9 C64.3,56.7 63.1,56.7 61.8,56.7 C60.6,56.7 59.4,56.8 58.1,56.9 L58.5,59.3 Z M40.7,54.3 C42,53.7 43.4,53.2 44.7,52.8 C45.9,52.4 47.3,52.1 48.7,51.8 L46.2,35.9 C44.7,36.1 43.3,36.1 41.9,36.2 L40.7,54.3 Z M57.1,50.5 C58.7,50.3 60.3,50.3 61.8,50.3 C63,50.3 64.3,50.4 65.5,50.5 L58.8,33.4 C57.5,33.8 56.1,34.2 54.6,34.5 L57.1,50.5 Z" id="Shape" fill="#C62232"></path>
                <path d="M58.1,19.2 C61.6,19.2 64.4,19.6 66.1,20.4 C68.9,21.7 69.4,26.1 67,28.1 C66.4,28.6 65.8,29 65.1,29.4 L81.5,71.1 C81.8,71.8 81.7,72.5 81.4,73.1 C81,73.9 80.3,74.4 79.5,74.7 C79.1,74.8 78.7,74.9 78.3,74.9 C78,74.9 77.6,74.8 77.3,74.7 C76.6,74.4 76.1,73.9 75.8,73.2 L70.5,59.8 L70.4,59.9 C68.1,61.4 65.6,62.6 62.9,63.3 C61.4,63.8 59.7,64.2 57.9,64.5 L60.7,82.4 C60.8,83.1 60.6,83.8 60.2,84.4 C59.7,85 59,85.4 58.3,85.5 C58.1,85.5 57.9,85.6 57.6,85.6 C57,85.6 56.4,85.4 55.8,85.1 C55.2,84.7 54.8,84.1 54.7,83.4 L51.9,65.5 C50.8,65.6 49.7,65.7 48.6,65.8 C47.8,65.9 46.9,65.9 46.1,65.9 C43.5,66 40.9,65.6 38.5,64.9 L37.5,79.3 C37.5,80 37.1,80.7 36.6,81.1 C36,81.5 35.4,81.8 34.7,81.7 L34.6,81.7 C33.7,81.7 32.9,81.3 32.3,80.7 C31.8,80.2 31.5,79.5 31.6,78.8 L34.5,34.4 C33.8,34.3 33.2,34.1 32.6,33.8 C29.7,32.7 29,28.3 31.3,26.1 C33.9,23.7 40.3,21.3 48.1,19.9 C51.5,19.5 54.8,19.2 58.1,19.2 L58.1,19.2 Z M42.4,30.8 C38.2,30.8 34.7,30.1 33,28.8 C34.1,30.8 38.1,32 43.2,32 C45.6,32 48,31.8 50.4,31.3 C58.2,29.9 64.4,26.6 65.6,23.6 C63.2,26.3 57.4,28.8 50.4,30.1 C47.7,30.6 45.1,30.8 42.4,30.8 L42.4,30.8 Z M56,51.9 C57.9,51.7 59.8,51.6 61.8,51.6 C63.7,51.6 65.6,51.7 67.5,52.1 L59.5,31.9 C57.4,32.6 55.3,33.2 53.2,33.6 L56,51.9 L56,51.9 Z M39.3,56.4 C41.1,55.4 43.1,54.6 45.1,54 C46.7,53.5 48.4,53.1 50.1,52.7 L47.3,34.4 C45.1,34.7 42.9,34.8 40.7,34.8 L39.3,56.4 L39.3,56.4 Z M57.4,60.8 C60.1,60.3 62.8,59.5 65.3,58.5 C66.5,58 67.7,57.4 68.7,56.5 C68,56.1 65.7,55.5 61.8,55.5 C60.1,55.5 58.3,55.6 56.6,55.8 L57.4,60.8 L57.4,60.8 Z M46.3,62 L46.3,62 C48.1,62 49.8,61.9 51.4,61.7 L50.6,56.6 C47.8,57.1 45.1,57.9 42.6,59 C41.4,59.4 40.3,60.1 39.4,60.9 C40.2,61.4 42.4,62 46.3,62 L46.3,62 Z M58.1,16.7 C54.7,16.7 51.3,17 47.9,17.6 C39.7,19 32.8,21.6 29.8,24.4 C28,26.1 27.2,28.6 27.8,31 C28.2,33.3 29.7,35.3 31.9,36.2 C32,36.2 32,36.3 32.1,36.3 L29.3,78.7 C29.2,80.1 29.7,81.5 30.7,82.5 C31.8,83.6 33.2,84.2 34.7,84.2 L34.9,84.2 C36.2,84.2 37.4,83.8 38.4,83 C39.5,82.1 40.2,80.8 40.2,79.4 L40.2,79.4 L41,68.1 C42.8,68.4 44.5,68.5 46.3,68.5 C47.1,68.5 48,68.5 48.9,68.4 C49.2,68.4 49.6,68.4 49.9,68.3 L52.3,83.8 C52.5,85.2 53.3,86.4 54.5,87.2 C55.4,87.8 56.5,88.1 57.6,88.1 C58,88.1 58.4,88.1 58.7,88 C60,87.8 61.3,87 62.1,86 L62.1,86 C63,84.9 63.3,83.5 63.1,82.1 L60.7,66.5 C61.7,66.3 62.6,66 63.6,65.7 C65.5,65.1 67.4,64.4 69.2,63.5 L73.4,74.2 C73.9,75.5 74.9,76.6 76.3,77.1 L76.3,77.1 C76.9,77.3 77.6,77.4 78.2,77.4 C78.9,77.4 79.6,77.3 80.2,77 C81.6,76.5 82.8,75.5 83.5,74.2 L83.5,74.2 C84.1,72.9 84.2,71.5 83.7,70.1 L68.1,30.4 C68.3,30.3 68.4,30.2 68.5,30 C70.4,28.4 71.2,25.9 70.9,23.5 C70.6,21.1 69.2,19.1 67.1,18.1 C64.5,16.9 60.7,16.7 58.1,16.7 L58.1,16.7 Z M56,35.5 C56.7,35.3 57.3,35.1 58,34.9 L63.6,49 C63,49 62.4,49 61.8,49 C60.6,49 59.4,49.1 58.1,49.1 L56,35.5 Z M43.1,37.4 C43.8,37.4 44.5,37.3 45.2,37.3 L47.3,50.8 C46.3,51 45.3,51.3 44.4,51.6 C43.6,51.8 42.9,52.1 42.1,52.3 L43.1,37.4 L43.1,37.4 Z" id="Shape" fill="#FFFFFF"></path>
                <path d="M124.1,88.9 L124.1,77.1 L129.5,77.1 L129.5,28.8 L124.1,28.8 L124.1,17.1 L160.4,17.1 L167.7,24.2 L167.7,45.6 L162.5,50.8 L167.7,56.2 L167.7,81.5 L160.3,88.9 L124.1,88.9 Z M141.2,28.8 L141.2,45.8 L155.9,45.8 L155.9,28.8 C155.9,28.8 141.2,28.8 141.2,28.8 Z M155.9,57.6 L141.2,57.6 L141.2,77 L155.9,77 L155.9,57.6 Z" id="Shape" fill="#FFFFFF"></path>
                <path d="M231,17.1 L268.4,17.1 L274.5,22.9 L274.5,53.8 L268.4,60.2 L264.5,60.2 L273.1,77.1 L278.1,77.1 L278.1,88.9 L266.2,88.9 L252.1,60.3 L248,60.3 L248,77.2 L253.4,77.2 L253.4,89 L230.9,89 L230.9,77.1 L236.3,77.1 L236.3,28.8 L230.9,28.8 L231,17.1 Z M262.9,28.8 L248.2,28.8 L248.2,48.4 L262.9,48.4 L262.9,28.8 Z" id="Shape" fill="#FFFFFF"></path>
                <polygon id="Shape" fill="#FFFFFF" points="285.1 23.3 291.5 17 317.7 17 324.3 23.5 324.3 37.2 312.6 37.2 312.6 28.8 296.9 28.8 296.9 45.9 317.6 45.9 324.3 52.6 324.3 80 315.7 88.8 292.9 88.8 285.1 81.1 285.1 68.5 296.8 68.5 296.8 77.1 312.5 77.1 312.5 57.6 291.8 57.6 285.1 50.9"></polygon>
                <path d="M330.3,42.7 L330.3,17.1 L379.2,17.1 L379.2,42.7 L367.8,42.7 L367.8,28.8 L360.5,28.8 L360.5,77.1 L365.9,77.1 L365.9,88.9 L343.4,88.9 L343.4,77.1 L348.8,77.1 L348.8,28.8 L341.5,28.8 L341.5,42.7 C341.5,42.7 330.3,42.7 330.3,42.7 Z" id="Shape" fill="#FFFFFF"></path>
                <path d="M385.2,81.1 L385.2,24.9 L392.8,17.2 L415.8,17.2 L423.3,24.9 L423.3,81.2 L415.6,88.9 L392.4,88.9 L385.2,81.1 Z M411.6,28.8 L396.9,28.8 L396.9,77 L411.6,77 L411.6,28.8 Z" id="Shape" fill="#FFFFFF"></path>
                <path d="M431.3,81.1 L431.3,24.9 L438.9,17.2 L462,17.2 L469.5,24.9 L469.5,81.2 L461.8,88.9 L438.5,88.9 L431.3,81.1 Z M457.8,28.8 L443.1,28.8 L443.1,77 L457.8,77 L457.8,28.8 Z" id="Shape" fill="#FFFFFF"></path>
                <polygon id="Shape" fill="#FFFFFF" points="476.5 17.1 499 17.1 499 28.8 493.6 28.8 493.6 77.1 508.3 77.1 508.3 60.4 520 60.4 520 88.9 476.4 88.9 476.4 77.1 481.8 77.1 481.8 28.8 476.4 28.8"></polygon>
                <polygon id="Shape" fill="#FFFFFF" points="537.3 23.3 543.7 17 569.9 17 576.5 23.5 576.5 37.2 564.8 37.2 564.8 28.8 549 28.8 549 45.9 569.7 45.9 576.4 52.6 576.4 80 567.8 88.8 545 88.8 537.2 81.1 537.2 68.5 549 68.5 549 77.1 564.7 77.1 564.7 57.6 544 57.6 537.3 50.9"></polygon>
                <path d="M583.5,88.9 L583.5,77.1 L588.9,77.1 L588.9,28.8 L583.5,28.8 L583.5,17.1 L620.3,17.1 L627.1,23.9 L627.1,51.3 L619.8,58.5 L600.6,58.5 L600.6,77.1 L606,77.1 L606,88.9 C606,88.9 583.5,88.9 583.5,88.9 Z M615.3,28.8 L600.6,28.8 L600.6,46.9 L615.3,46.9 L615.3,28.8 Z" id="Shape" fill="#FFFFFF"></path>
                <path d="M633,81.1 L633,24.9 L640.6,17.2 L663.7,17.2 L671.2,24.9 L671.2,81.2 L663.5,88.9 L640.2,88.9 L633,81.1 Z M659.4,28.8 L644.7,28.8 L644.7,77 L659.4,77 L659.4,28.8 Z" id="Shape" fill="#FFFFFF"></path>
                <path d="M677.1,17.1 L714.5,17.1 L720.6,22.9 L720.6,53.8 L714.5,60.2 L710.6,60.2 L719.2,77.1 L724.2,77.1 L724.2,88.9 L712.3,88.9 L698.3,60.2 L694.2,60.2 L694.2,77.1 L699.6,77.1 L699.6,88.9 L677.1,88.9 L677.1,77.1 L682.5,77.1 L682.5,28.8 L677.1,28.8 L677.1,17.1 Z M708.9,28.8 L694.2,28.8 L694.2,48.4 L708.9,48.4 L708.9,28.8 Z" id="Shape" fill="#FFFFFF"></path>
                <path d="M726.1,42.7 L726.1,17.1 L775,17.1 L775,42.7 L763.6,42.7 L763.6,28.8 L756.3,28.8 L756.3,77.1 L761.7,77.1 L761.7,88.9 L739.2,88.9 L739.2,77.1 L744.6,77.1 L744.6,28.8 L737.3,28.8 L737.3,42.7 C737.3,42.7 726.1,42.7 726.1,42.7 Z" id="Shape" fill="#FFFFFF"></path>
                <polygon id="Shape" fill="#FFFFFF" points="781 23.3 787.4 17 813.6 17 820.2 23.5 820.2 37.2 808.5 37.2 808.5 28.8 792.8 28.8 792.8 45.9 813.5 45.9 820.2 52.6 820.2 80 811.6 88.8 788.8 88.8 781 81.1 781 68.5 792.7 68.5 792.7 77.1 808.4 77.1 808.4 57.6 787.7 57.6 781 50.9"></polygon>
                <path d="M832.4,31.7 C828.2,31.7 824.8,28.3 824.8,24.1 C824.8,19.9 828.2,16.5 832.4,16.5 C836.6,16.5 840,19.9 840,24.1 C840,28.3 836.6,31.7 832.4,31.7 Z M832.4,17.8 C828.9,17.8 826.1,20.6 826.1,24.1 C826.1,27.6 828.9,30.4 832.4,30.4 C835.9,30.4 838.7,27.6 838.7,24.1 C838.7,20.6 835.9,17.8 832.4,17.8 Z" id="Shape" fill="#FFFFFF"></path>
                <path d="M835.6,23 C835.7,24 835,25 834,25.3 L836,28 L834.4,28 L832.6,25.5 L831,25.5 L831,28 L829.8,28 L829.8,20.7 L832.5,20.7 C833.3,20.6 834.2,20.8 834.9,21.3 C835.5,21.6 835.7,22.3 835.6,23 Z M834,24 C834.3,23.7 834.4,23.4 834.4,23 C834.5,22.6 834.3,22.2 834,22 C833.6,21.8 833.1,21.7 832.6,21.7 L831,21.7 L831,24.3 L832.5,24.3 C833.1,24.4 833.6,24.3 834,24 L834,24 Z" id="Shape" fill="#FFFFFF"></path>
                <path d="M221,77.1 L204.2,17 L193.6,17 L176.8,77.1 L171.7,77.1 L171.7,88.9 L194.2,88.9 L194.2,77.1 L188.3,77.1 L190.4,69.6 L207.7,69.6 L209.7,77.1 L203,77.1 L203,88.9 L226.1,88.9 L226.1,77.1 L221,77.1 L221,77.1 Z M193.2,59 L198.9,38.8 L204.6,59 L193.2,59 Z" id="Shape" fill="#FFFFFF"></path>
            </g>
        </g>
    </g>
</svg>